<svg width="520" height="280" xmlns="http://www.w3.org/2000/svg">
 <!-- Created with Method Draw - http://github.com/duopixel/Method-Draw/ -->

 <g>
  <title>background</title>
  <rect fill="none" id="canvas_background" height="282" width="522" y="-1" x="-1"/>
 </g>
 <g>
  <title>Layer 1</title>
  <metadata id="svg_35">image/svg+xml</metadata>
  <defs>
   <clipPath id="svg_33" clipPathUnits="userSpaceOnUse">
    <path id="svg_34" d="m11.52,162c0,-80.323 123.787,-145.439 276.48,-145.439l0,0c152.693,0 276.481,65.116 276.481,145.439l0,0c0,80.322 -123.788,145.439 -276.481,145.439l0,0c-152.693,0 -276.48,-65.117 -276.48,-145.439"/>
   </clipPath>
   <clipPath id="svg_26" clipPathUnits="userSpaceOnUse">
    <path id="svg_27" d="m0,136.527958l242.716369,0l0,-136.527958l-242.716369,0l0,136.527958z"/>
   </clipPath>
   <clipPath id="svg_24" clipPathUnits="userSpaceOnUse">
    <path id="svg_25" d="m0,324l576,0l0,-324l-576,0l0,324z"/>
   </clipPath>
  </defs>
  <!-- Created with Method Draw - http://github.com/duopixel/Method-Draw/ -->
  <!-- Created with Method Draw - http://github.com/duopixel/Method-Draw/ -->
  <g id="svg_103">
   <g id="svg_101">
    <title transform="translate(40.53517532348633,0) translate(0,-1594.37841796875) ">background</title>
    <rect x="39.535175" y="-1595.378418" width="522" height="402" id="svg_99" fill="none"/>
   </g>
   <g id="svg_102">
    <title transform="translate(40.53517532348633,0) translate(0,-1594.37841796875) ">Layer 1</title>
    <metadata transform="translate(40.53517532348633,0) translate(0,-1594.37841796875) " id="svg_98">image/svg+xml</metadata>
    <defs transform="translate(40.53517532348633,0) translate(0,-1594.37841796875) ">
     <clipPath clipPathUnits="userSpaceOnUse" id="svg_96">
      <path d="m11.52,162c0,-80.323 123.787,-145.439 276.48,-145.439l0,0c152.693,0 276.481,65.116 276.481,145.439l0,0c0,80.322 -123.788,145.439 -276.481,145.439l0,0c-152.693,0 -276.48,-65.117 -276.48,-145.439" id="svg_97"/>
     </clipPath>
     <clipPath clipPathUnits="userSpaceOnUse" id="svg_94">
      <path d="m0,136.527958l242.716369,0l0,-136.527958l-242.716369,0l0,136.527958z" id="svg_95"/>
     </clipPath>
     <clipPath clipPathUnits="userSpaceOnUse" id="svg_92">
      <path d="m-104.203333,-65.921787l10.779404,0l0,-6.063415l-10.779404,0l0,6.063415z" id="svg_93"/>
     </clipPath>
    </defs>
    <g id="svg_89" stroke="null">
     <rect width="525.000004" height="401.999983" fill="#f7df1e" id="svg_91" y="-1597.378402" x="36.53517" stroke="null"/>
     <path d="m432.203111,-1281.564355c7.936286,12.958222 18.261587,22.483016 36.523175,22.483016c15.340984,0 25.140952,-7.667365 25.140952,-18.261587c0,-12.695556 -10.068889,-17.192159 -26.954603,-24.578095l-9.255873,-3.97127c-26.716952,-11.382222 -44.465714,-25.64127 -44.465714,-55.785397c0,-27.767619 21.157175,-48.906032 54.221905,-48.906032c23.539936,0 40.463175,8.192698 52.658413,29.643809l-28.830794,18.511746c-6.347778,-11.382222 -13.195873,-15.866317 -23.827619,-15.866317c-10.844381,0 -17.717492,6.879365 -17.717492,15.866317c0,11.107048 6.879365,15.603651 22.764444,22.483016l9.255873,3.965016c31.45746,13.48981 49.21873,27.242286 49.21873,58.161905c0,33.333651 -26.185365,51.595238 -61.351428,51.595238c-34.384317,0 -56.598413,-16.385397 -67.467809,-37.861524l30.087841,-17.479841l-0.000001,0zm-130.789238,3.208286c5.81619,10.319048 11.107048,19.043333 23.827619,19.043333c12.163968,0 19.837587,-4.75927 19.837587,-23.264762l0,-125.892381l37.023492,0l0,126.392698c0,38.336825 -22.476762,55.785397 -55.285079,55.785397c-29.643809,0 -46.810952,-15.340984 -55.541492,-33.818333l30.137873,-18.245952z" id="svg_90" stroke="null"/>
    </g>
   </g>
  </g>
  <!-- Created with Method Draw - http://github.com/duopixel/Method-Draw/ -->
  <!-- Created with Method Draw - http://github.com/duopixel/Method-Draw/ -->
  <!-- Created with Method Draw - http://github.com/duopixel/Method-Draw/ -->
  <!-- Created with Method Draw - http://github.com/duopixel/Method-Draw/ -->
  <!-- Created with Method Draw - http://github.com/duopixel/Method-Draw/ -->
  <!-- Created with Method Draw - http://github.com/duopixel/Method-Draw/ -->
  <g id="svg_311">
   <g id="svg_309">
    <title transform="translate(-911.8232421875,0) translate(0,-788.7216796875) ">background</title>
   </g>
   <g id="svg_310">
    <title transform="translate(-911.8232421875,0) translate(0,-788.7216796875) ">Layer 1</title>
    <style transform="translate(-911.8232421875,0) translate(0,-788.7216796875) " type="text/css">.st0{fill:#252F3E;}
	.st1{fill-rule:evenodd;clip-rule:evenodd;fill:#FF9900;}</style>
    <style transform="translate(-911.8232421875,0) translate(0,-788.7216796875) " type="text/css">.st0{fill:#252F3E;}
	.st1{fill-rule:evenodd;clip-rule:evenodd;fill:#FF9900;}</style>
    <g id="svg_302" stroke="null">
     <g id="svg_303" stroke="null">
      <path class="st0" d="m194.396555,115.399976c0,3.7 0.4,6.7 1.1,8.9c0.8,2.2 1.8,4.6 3.2,7.2c0.5,0.8 0.7,1.6 0.7,2.3c0,1 -0.6,2 -1.9,3l-6.3,4.2c-0.9,0.6 -1.8,0.9 -2.6,0.9c-1,0 -2,-0.5 -3,-1.4c-1.4,-1.5 -2.6,-3.1 -3.6,-4.7c-1,-1.7 -2,-3.6 -3.1,-5.9c-7.8,9.2 -17.6,13.8 -29.4,13.8c-8.4,0 -15.1,-2.4 -20,-7.2c-4.9,-4.8 -7.4,-11.2 -7.4,-19.2c0,-8.5 3,-15.4 9.1,-20.6c6.1,-5.2 14.2,-7.8 24.5,-7.8c3.4,0 6.9,0.3 10.6,0.8c3.7,0.5 7.5,1.3 11.5,2.2l0,-7.3c0,-7.6 -1.6,-12.9 -4.7,-16c-3.2,-3.1 -8.6,-4.6 -16.3,-4.6c-3.5,0 -7.1,0.4 -10.8,1.3c-3.7,0.9 -7.3,2 -10.8,3.4c-1.6,0.7 -2.8,1.1 -3.5,1.3c-0.7,0.2 -1.2,0.3 -1.6,0.3c-1.4,0 -2.1,-1 -2.1,-3.1l0,-4.9c0,-1.6 0.2,-2.8 0.7,-3.5c0.5,-0.7 1.4,-1.4 2.8,-2.1c3.5,-1.8 7.7,-3.3 12.6,-4.5c4.9,-1.3 10.1,-1.9 15.6,-1.9c11.9,0 20.6,2.7 26.2,8.1c5.5,5.4 8.3,13.6 8.3,24.6l0,32.4l0.2,0zm-40.6,15.2c3.3,0 6.7,-0.6 10.3,-1.8c3.6,-1.2 6.8,-3.4 9.5,-6.4c1.6,-1.9 2.8,-4 3.4,-6.4c0.6,-2.4 1,-5.3 1,-8.7l0,-4.2c-2.9,-0.7 -6,-1.3 -9.2,-1.7c-3.2,-0.4 -6.3,-0.6 -9.4,-0.6c-6.7,0 -11.6,1.3 -14.9,4c-3.3,2.7 -4.9,6.5 -4.9,11.5c0,4.7 1.2,8.2 3.7,10.6c2.4,2.5 5.9,3.7 10.5,3.7zm80.3,10.8c-1.8,0 -3,-0.3 -3.8,-1c-0.8,-0.6 -1.5,-2 -2.1,-3.9l-23.5,-77.3c-0.6,-2 -0.9,-3.3 -0.9,-4c0,-1.6 0.8,-2.5 2.4,-2.5l9.8,0c1.9,0 3.2,0.3 3.9,1c0.8,0.6 1.4,2 2,3.9l16.8,66.2l15.6,-66.2c0.5,-2 1.1,-3.3 1.9,-3.9c0.8,-0.6 2.2,-1 4,-1l8,0c1.9,0 3.2,0.3 4,1c0.8,0.6 1.5,2 1.9,3.9l15.8,67l17.3,-67c0.6,-2 1.3,-3.3 2,-3.9c0.8,-0.6 2.1,-1 3.9,-1l9.3,0c1.6,0 2.5,0.8 2.5,2.5c0,0.5 -0.1,1 -0.2,1.6c-0.1,0.6 -0.3,1.4 -0.7,2.5l-24.1,77.3c-0.6,2 -1.3,3.3 -2.1,3.9c-0.8,0.6 -2.1,1 -3.8,1l-8.6,0c-1.9,0 -3.2,-0.3 -4,-1c-0.8,-0.7 -1.5,-2 -1.9,-4l-15.5,-64.5l-15.4,64.4c-0.5,2 -1.1,3.3 -1.9,4c-0.8,0.7 -2.2,1 -4,1l-8.6,0zm128.5,2.7c-5.2,0 -10.4,-0.6 -15.4,-1.8c-5,-1.2 -8.9,-2.5 -11.5,-4c-1.6,-0.9 -2.7,-1.9 -3.1,-2.8c-0.4,-0.9 -0.6,-1.9 -0.6,-2.8l0,-5.1c0,-2.1 0.8,-3.1 2.3,-3.1c0.6,0 1.2,0.1 1.8,0.3c0.6,0.2 1.5,0.6 2.5,1c3.4,1.5 7.1,2.7 11,3.5c4,0.8 7.9,1.2 11.9,1.2c6.3,0 11.2,-1.1 14.6,-3.3c3.4,-2.2 5.2,-5.4 5.2,-9.5c0,-2.8 -0.9,-5.1 -2.7,-7c-1.8,-1.9 -5.2,-3.6 -10.1,-5.2l-14.5,-4.5c-7.3,-2.3 -12.7,-5.7 -16,-10.2c-3.3,-4.4 -5,-9.3 -5,-14.5c0,-4.2 0.9,-7.9 2.7,-11.1c1.8,-3.2 4.2,-6 7.2,-8.2c3,-2.3 6.4,-4 10.4,-5.2c4,-1.2 8.2,-1.7 12.6,-1.7c2.2,0 4.5,0.1 6.7,0.4c2.3,0.3 4.4,0.7 6.5,1.1c2,0.5 3.9,1 5.7,1.6c1.8,0.6 3.2,1.2 4.2,1.8c1.4,0.8 2.4,1.6 3,2.5c0.6,0.8 0.9,1.9 0.9,3.3l0,4.7c0,2.1 -0.8,3.2 -2.3,3.2c-0.8,0 -2.1,-0.4 -3.8,-1.2c-5.7,-2.6 -12.1,-3.9 -19.2,-3.9c-5.7,0 -10.2,0.9 -13.3,2.8c-3.1,1.9 -4.7,4.8 -4.7,8.9c0,2.8 1,5.2 3,7.1c2,1.9 5.7,3.8 11,5.5l14.2,4.5c7.2,2.3 12.4,5.5 15.5,9.6c3.1,4.1 4.6,8.8 4.6,14c0,4.3 -0.9,8.2 -2.6,11.6c-1.8,3.4 -4.2,6.4 -7.3,8.8c-3.1,2.5 -6.8,4.3 -11.1,5.6c-4.5,1.4 -9.2,2.1 -14.3,2.1z" id="svg_307" stroke="null"/>
      <g id="svg_304" stroke="null">
       <path class="st1" d="m381.496555,192.699976c-32.9,24.3 -80.7,37.2 -121.8,37.2c-57.6,0 -109.5,-21.3 -148.7,-56.7c-3.1,-2.8 -0.3,-6.6 3.4,-4.4c42.4,24.6 94.7,39.5 148.8,39.5c36.5,0 76.6,-7.6 113.5,-23.2c5.5,-2.5 10.2,3.6 4.8,7.6z" id="svg_306" stroke="null"/>
       <path class="st1" d="m395.196555,177.099976c-4.2,-5.4 -27.8,-2.6 -38.5,-1.3c-3.2,0.4 -3.7,-2.4 -0.8,-4.5c18.8,-13.2 49.7,-9.4 53.3,-5c3.6,4.5 -1,35.4 -18.6,50.2c-2.7,2.3 -5.3,1.1 -4.1,-1.9c4,-9.9 12.9,-32.2 8.7,-37.5z" id="svg_305" stroke="null"/>
      </g>
     </g>
    </g>
   </g>
  </g>
 </g>
</svg>