<svg width="520" height="280" xmlns="http://www.w3.org/2000/svg">
 <!-- Created with Method Draw - http://github.com/duopixel/Method-Draw/ -->

 <g>
  <title>background</title>
  <rect fill="none" id="canvas_background" height="282" width="522" y="-1" x="-1"/>
 </g>
 <g>
  <title>Layer 1</title>
  <metadata id="svg_35">image/svg+xml</metadata>
  <defs>
   <clipPath id="svg_33" clipPathUnits="userSpaceOnUse">
    <path id="svg_34" d="m11.52,162c0,-80.323 123.787,-145.439 276.48,-145.439l0,0c152.693,0 276.481,65.116 276.481,145.439l0,0c0,80.322 -123.788,145.439 -276.481,145.439l0,0c-152.693,0 -276.48,-65.117 -276.48,-145.439"/>
   </clipPath>
   <clipPath id="svg_26" clipPathUnits="userSpaceOnUse">
    <path id="svg_27" d="m0,136.527958l242.716369,0l0,-136.527958l-242.716369,0l0,136.527958z"/>
   </clipPath>
   <clipPath id="svg_24" clipPathUnits="userSpaceOnUse">
    <path id="svg_25" d="m0,324l576,0l0,-324l-576,0l0,324z"/>
   </clipPath>
  </defs>
  <!-- Created with Method Draw - http://github.com/duopixel/Method-Draw/ -->
  <!-- Created with Method Draw - http://github.com/duopixel/Method-Draw/ -->
  <g id="svg_103">
   <g id="svg_101">
    <title transform="translate(40.53517532348633,0) translate(0,-1594.37841796875) ">background</title>
    <rect x="39.535175" y="-1595.378418" width="522" height="402" id="svg_99" fill="none"/>
   </g>
   <g id="svg_102">
    <title transform="translate(40.53517532348633,0) translate(0,-1594.37841796875) ">Layer 1</title>
    <metadata transform="translate(40.53517532348633,0) translate(0,-1594.37841796875) " id="svg_98">image/svg+xml</metadata>
    <defs transform="translate(40.53517532348633,0) translate(0,-1594.37841796875) ">
     <clipPath clipPathUnits="userSpaceOnUse" id="svg_96">
      <path d="m11.52,162c0,-80.323 123.787,-145.439 276.48,-145.439l0,0c152.693,0 276.481,65.116 276.481,145.439l0,0c0,80.322 -123.788,145.439 -276.481,145.439l0,0c-152.693,0 -276.48,-65.117 -276.48,-145.439" id="svg_97"/>
     </clipPath>
     <clipPath clipPathUnits="userSpaceOnUse" id="svg_94">
      <path d="m0,136.527958l242.716369,0l0,-136.527958l-242.716369,0l0,136.527958z" id="svg_95"/>
     </clipPath>
     <clipPath clipPathUnits="userSpaceOnUse" id="svg_92">
      <path d="m-104.203333,-65.921787l10.779404,0l0,-6.063415l-10.779404,0l0,6.063415z" id="svg_93"/>
     </clipPath>
    </defs>
    <g id="svg_89" stroke="null">
     <rect width="525.000004" height="401.999983" fill="#f7df1e" id="svg_91" y="-1597.378402" x="36.53517" stroke="null"/>
     <path d="m432.203111,-1281.564355c7.936286,12.958222 18.261587,22.483016 36.523175,22.483016c15.340984,0 25.140952,-7.667365 25.140952,-18.261587c0,-12.695556 -10.068889,-17.192159 -26.954603,-24.578095l-9.255873,-3.97127c-26.716952,-11.382222 -44.465714,-25.64127 -44.465714,-55.785397c0,-27.767619 21.157175,-48.906032 54.221905,-48.906032c23.539936,0 40.463175,8.192698 52.658413,29.643809l-28.830794,18.511746c-6.347778,-11.382222 -13.195873,-15.866317 -23.827619,-15.866317c-10.844381,0 -17.717492,6.879365 -17.717492,15.866317c0,11.107048 6.879365,15.603651 22.764444,22.483016l9.255873,3.965016c31.45746,13.48981 49.21873,27.242286 49.21873,58.161905c0,33.333651 -26.185365,51.595238 -61.351428,51.595238c-34.384317,0 -56.598413,-16.385397 -67.467809,-37.861524l30.087841,-17.479841l-0.000001,0zm-130.789238,3.208286c5.81619,10.319048 11.107048,19.043333 23.827619,19.043333c12.163968,0 19.837587,-4.75927 19.837587,-23.264762l0,-125.892381l37.023492,0l0,126.392698c0,38.336825 -22.476762,55.785397 -55.285079,55.785397c-29.643809,0 -46.810952,-15.340984 -55.541492,-33.818333l30.137873,-18.245952z" id="svg_90" stroke="null"/>
    </g>
   </g>
  </g>
  <!-- Created with Method Draw - http://github.com/duopixel/Method-Draw/ -->
  <!-- Created with Method Draw - http://github.com/duopixel/Method-Draw/ -->
  <!-- Created with Method Draw - http://github.com/duopixel/Method-Draw/ -->
  <!-- Created with Method Draw - http://github.com/duopixel/Method-Draw/ -->
  <g id="svg_275">
   <g id="svg_273">
    <title transform="translate(1.500020980834961,0) translate(0,-59.83197784423828) ">background</title>
   </g>
   <g id="svg_274">
    <title transform="translate(1.500020980834961,0) translate(0,-59.83197784423828) ">Layer 1</title>
    <style transform="translate(1.500020980834961,0) translate(0,-59.83197784423828) " type="text/css">.st0{fill:#252F3E;}
	.st1{fill-rule:evenodd;clip-rule:evenodd;fill:#FF9900;}</style>
    <style transform="translate(1.500020980834961,0) translate(0,-59.83197784423828) " type="text/css">.st0{fill:#252F3E;}
	.st1{fill-rule:evenodd;clip-rule:evenodd;fill:#FF9900;}</style>
    <style transform="translate(1.500020980834961,0) translate(0,-59.83197784423828) " type="text/css">.st0{fill:#00ACD7;}</style>
    <style transform="translate(1.500020980834961,0) translate(0,-59.83197784423828) " type="text/css">.st0{fill:#00ACD7;}</style>
    <g id="svg_251" stroke="null">
     <g id="svg_252" stroke="null">
      <g id="svg_268" stroke="null">
       <g id="svg_269" stroke="null">
        <g id="svg_270" stroke="null">
         <path class="st0" d="m80.406855,-1172.675289c-0.970628,0 -1.213285,-0.485314 -0.727971,-1.213285l5.095797,-6.551738c0.485314,-0.727971 1.698599,-1.213285 2.669227,-1.213285l86.628542,0c0.970628,0 1.213285,0.727971 0.727971,1.455942l-4.125169,6.309081c-0.485314,0.727971 -1.698599,1.455942 -2.42657,1.455942l-87.841827,-0.242657z" id="svg_271" stroke="null"/>
        </g>
       </g>
      </g>
      <g id="svg_264" stroke="null">
       <g id="svg_265" stroke="null">
        <g id="svg_266" stroke="null">
         <path class="st0" d="m11.776765,125.603553c-0.970628,0 -1.213285,-0.485314 -0.727971,-1.213285l5.095797,-6.551738c0.485314,-0.727971 1.698599,-1.213285 2.669227,-1.213285l110.651583,0c0.970628,0 1.455942,0.727971 1.213285,1.455942l-1.941256,5.823768c-0.242657,0.970628 -1.213285,1.455942 -2.183913,1.455942l-114.776751,0.242657l-0.000001,-0.000001z" id="svg_267" stroke="null"/>
        </g>
       </g>
      </g>
      <g id="svg_260" stroke="null">
       <g id="svg_261" stroke="null">
        <g id="svg_262" stroke="null">
         <path class="st0" d="m70.499754,147.927995c-0.970628,0 -1.213285,-0.727971 -0.727971,-1.455942l3.397198,-6.066424c0.485314,-0.727971 1.455942,-1.455942 2.42657,-1.455942l48.531396,0c0.970628,0 1.455942,0.727971 1.455942,1.698599l-0.485314,5.823768c0,0.970628 -0.970628,1.698599 -1.698599,1.698599l-52.899222,-0.242657l0,-0.000001z" id="svg_263" stroke="null"/>
        </g>
       </g>
      </g>
      <g id="svg_253" stroke="null">
       <g id="svg_254" stroke="null">
        <g id="svg_255" stroke="null">
         <g id="svg_258" stroke="null">
          <path class="st0" d="m322.377699,98.911285c-15.28739,3.882512 -25.72164,6.794395 -40.766373,10.676907c-3.639855,0.970628 -3.882512,1.213285 -7.037052,-2.42657c-3.639855,-4.125169 -6.309081,-6.794395 -11.404878,-9.220965c-15.28739,-7.522366 -30.089465,-5.338454 -43.920913,3.639855c-16.500675,10.676907 -24.993669,26.449611 -24.751012,46.104826c0.242657,19.412558 13.588791,35.427919 32.758692,38.097146c16.500675,2.183913 30.332122,-3.639855 41.251687,-16.015361c2.183913,-2.669227 4.125169,-5.581111 6.551738,-8.978308c-8.735651,0 -19.655215,0 -46.832797,0c-5.095797,0 -6.309081,-3.154541 -4.610483,-7.279709c3.154541,-7.522366 8.978308,-20.140529 12.375506,-26.449611c0.727971,-1.455942 2.42657,-3.882512 6.066424,-3.882512c12.375506,0 57.995018,0 88.327141,0c-0.485314,6.551738 -0.485314,13.103477 -1.455942,19.655215c-2.669227,17.471303 -9.220965,33.486663 -19.897872,47.560768c-17.471303,23.052413 -40.281059,37.369175 -69.157239,41.251687c-23.780384,3.154541 -45.862169,-1.455942 -65.274728,-16.015361c-17.956617,-13.588791 -28.14821,-31.545407 -30.817436,-53.86985c-3.154541,-26.449611 4.610483,-50.229995 20.625843,-71.098495c17.228646,-22.567099 40.038402,-36.883861 67.943954,-41.979658c22.809756,-4.125169 44.648884,-1.455942 64.3041,11.890192c12.86082,8.492994 22.081785,20.140529 28.14821,34.214634c1.455942,2.183913 0.485314,3.397198 -2.42657,4.125169l0,0.000001z" id="svg_259" stroke="null"/>
         </g>
         <g id="svg_256" stroke="null">
          <path class="st0" d="m402.69716,233.100595c-22.081785,-0.485314 -42.222314,-6.794395 -59.208303,-21.353814c-14.316762,-12.375506 -23.29507,-28.14821 -26.206954,-46.832797c-4.367826,-27.420239 3.154541,-51.685937 19.655215,-73.282408c17.71396,-23.29507 39.067774,-35.427919 67.943954,-40.523716c24.751012,-4.367826 48.046082,-1.941256 69.157239,12.375506c19.169901,13.103477 31.060093,30.817436 34.214634,54.112506c4.125169,32.758692 -5.338454,59.45096 -27.905553,82.260716c-16.015361,16.258018 -35.670576,26.449611 -58.237675,31.060093c-6.551738,1.213285 -13.103477,1.455942 -19.412558,2.183913l0.000001,0.000001zm57.752361,-98.03342c-0.242657,-3.154541 -0.242657,-5.581111 -0.727971,-8.00768c-4.367826,-24.023041 -26.449611,-37.611832 -49.502024,-32.273378c-22.567099,5.095797 -37.126518,19.412558 -42.464971,42.222314c-4.367826,18.927244 4.85314,38.097146 22.324442,45.862169c13.346134,5.823768 26.692268,5.095797 39.553088,-1.455942c19.169901,-9.948936 29.604152,-25.478983 30.817436,-46.347483z" id="svg_257" stroke="null"/>
         </g>
        </g>
       </g>
      </g>
     </g>
    </g>
   </g>
  </g>
 </g>
</svg>