<svg width="520" height="280" xmlns="http://www.w3.org/2000/svg">
 <!-- Created with Method Draw - http://github.com/duopixel/Method-Draw/ -->

 <g>
  <title>background</title>
  <rect fill="none" id="canvas_background" height="282" width="522" y="-1" x="-1"/>
 </g>
 <g>
  <title>Layer 1</title>
  <metadata id="svg_35">image/svg+xml</metadata>
  <defs>
   <clipPath id="svg_33" clipPathUnits="userSpaceOnUse">
    <path id="svg_34" d="m11.52,162c0,-80.323 123.787,-145.439 276.48,-145.439l0,0c152.693,0 276.481,65.116 276.481,145.439l0,0c0,80.322 -123.788,145.439 -276.481,145.439l0,0c-152.693,0 -276.48,-65.117 -276.48,-145.439"/>
   </clipPath>
   <clipPath id="svg_26" clipPathUnits="userSpaceOnUse">
    <path id="svg_27" d="m0,136.527958l242.716369,0l0,-136.527958l-242.716369,0l0,136.527958z"/>
   </clipPath>
   <clipPath id="svg_24" clipPathUnits="userSpaceOnUse">
    <path id="svg_25" d="m0,324l576,0l0,-324l-576,0l0,324z"/>
   </clipPath>
  </defs>
  <!-- Created with Method Draw - http://github.com/duopixel/Method-Draw/ -->
  <!-- Created with Method Draw - http://github.com/duopixel/Method-Draw/ -->
  <g id="svg_103">
   <g id="svg_101">
    <title transform="translate(40.53517532348633,0) translate(0,-1594.37841796875) ">background</title>
    <rect x="39.535175" y="-1595.378418" width="522" height="402" id="svg_99" fill="none"/>
   </g>
   <g id="svg_102">
    <title transform="translate(40.53517532348633,0) translate(0,-1594.37841796875) ">Layer 1</title>
    <metadata transform="translate(40.53517532348633,0) translate(0,-1594.37841796875) " id="svg_98">image/svg+xml</metadata>
    <defs transform="translate(40.53517532348633,0) translate(0,-1594.37841796875) ">
     <clipPath clipPathUnits="userSpaceOnUse" id="svg_96">
      <path d="m11.52,162c0,-80.323 123.787,-145.439 276.48,-145.439l0,0c152.693,0 276.481,65.116 276.481,145.439l0,0c0,80.322 -123.788,145.439 -276.481,145.439l0,0c-152.693,0 -276.48,-65.117 -276.48,-145.439" id="svg_97"/>
     </clipPath>
     <clipPath clipPathUnits="userSpaceOnUse" id="svg_94">
      <path d="m0,136.527958l242.716369,0l0,-136.527958l-242.716369,0l0,136.527958z" id="svg_95"/>
     </clipPath>
     <clipPath clipPathUnits="userSpaceOnUse" id="svg_92">
      <path d="m-104.203333,-65.921787l10.779404,0l0,-6.063415l-10.779404,0l0,6.063415z" id="svg_93"/>
     </clipPath>
    </defs>
    <g id="svg_89" stroke="null">
     <rect width="525.000004" height="401.999983" fill="#f7df1e" id="svg_91" y="-1597.378402" x="36.53517" stroke="null"/>
     <path d="m432.203111,-1281.564355c7.936286,12.958222 18.261587,22.483016 36.523175,22.483016c15.340984,0 25.140952,-7.667365 25.140952,-18.261587c0,-12.695556 -10.068889,-17.192159 -26.954603,-24.578095l-9.255873,-3.97127c-26.716952,-11.382222 -44.465714,-25.64127 -44.465714,-55.785397c0,-27.767619 21.157175,-48.906032 54.221905,-48.906032c23.539936,0 40.463175,8.192698 52.658413,29.643809l-28.830794,18.511746c-6.347778,-11.382222 -13.195873,-15.866317 -23.827619,-15.866317c-10.844381,0 -17.717492,6.879365 -17.717492,15.866317c0,11.107048 6.879365,15.603651 22.764444,22.483016l9.255873,3.965016c31.45746,13.48981 49.21873,27.242286 49.21873,58.161905c0,33.333651 -26.185365,51.595238 -61.351428,51.595238c-34.384317,0 -56.598413,-16.385397 -67.467809,-37.861524l30.087841,-17.479841l-0.000001,0zm-130.789238,3.208286c5.81619,10.319048 11.107048,19.043333 23.827619,19.043333c12.163968,0 19.837587,-4.75927 19.837587,-23.264762l0,-125.892381l37.023492,0l0,126.392698c0,38.336825 -22.476762,55.785397 -55.285079,55.785397c-29.643809,0 -46.810952,-15.340984 -55.541492,-33.818333l30.137873,-18.245952z" id="svg_90" stroke="null"/>
    </g>
   </g>
  </g>
  <!-- Created with Method Draw - http://github.com/duopixel/Method-Draw/ -->
  <g id="svg_131">
   <g id="svg_129">
    <title transform="translate(0,-10) translate(0,-10) translate(0,-10) translate(0,-10) translate(0,-10) translate(1.500004768371582,0) translate(0,-59) ">background</title>
    <rect x="0.500005" y="-110" width="522" height="402" id="svg_127" fill="none"/>
   </g>
   <g id="svg_130">
    <title transform="translate(0,-10) translate(0,-10) translate(0,-10) translate(0,-10) translate(0,-10) translate(1.500004768371582,0) translate(0,-59) ">Layer 1</title>
    <metadata id="svg_126">image/svg+xml</metadata>
    <defs transform="translate(0,-10) translate(0,-10) translate(0,-10) translate(0,-10) translate(0,-10) translate(1.500004768371582,0) translate(0,-59) ">
     <clipPath clipPathUnits="userSpaceOnUse" id="svg_124">
      <path d="m11.52,162c0,-80.323 123.787,-145.439 276.48,-145.439l0,0c152.693,0 276.481,65.116 276.481,145.439l0,0c0,80.322 -123.788,145.439 -276.481,145.439l0,0c-152.693,0 -276.48,-65.117 -276.48,-145.439" id="svg_125"/>
     </clipPath>
     <clipPath clipPathUnits="userSpaceOnUse" id="svg_122">
      <path d="m0,136.527958l242.716369,0l0,-136.527958l-242.716369,0l0,136.527958z" id="svg_123"/>
     </clipPath>
     <clipPath clipPathUnits="userSpaceOnUse" id="svg_120">
      <path d="m0,324l576,0l0,-324l-576,0l0,324z" id="svg_121"/>
     </clipPath>
    </defs>
    <g id="svg_117" stroke="null">
     <rect width="525.000004" height="401.999983" fill="#f7df1e" id="svg_119" y="-111.999984" x="-2.5" stroke="null"/>
     <path d="m393.167941,203.814063c7.936286,12.958222 18.261587,22.483016 36.523175,22.483016c15.340984,0 25.140952,-7.667365 25.140952,-18.261587c0,-12.695556 -10.068889,-17.192159 -26.954603,-24.578095l-9.255873,-3.97127c-26.716952,-11.382222 -44.465714,-25.64127 -44.465714,-55.785397c0,-27.767619 21.157175,-48.906032 54.221905,-48.906032c23.539936,0 40.463175,8.192698 52.658413,29.643809l-28.830794,18.511746c-6.347778,-11.382222 -13.195873,-15.866317 -23.827619,-15.866317c-10.844381,0 -17.717492,6.879365 -17.717492,15.866317c0,11.107048 6.879365,15.603651 22.764444,22.483016l9.255873,3.965016c31.45746,13.48981 49.21873,27.242286 49.21873,58.161905c0,33.333651 -26.185365,51.595238 -61.351428,51.595238c-34.384317,0 -56.598413,-16.385397 -67.467809,-37.861524l30.087841,-17.479841l-0.000001,0zm-130.789238,3.208286c5.81619,10.319048 11.107048,19.043333 23.827619,19.043333c12.163968,0 19.837587,-4.75927 19.837587,-23.264762l0,-125.892381l37.023492,0l0,126.392698c0,38.336825 -22.476762,55.785397 -55.285079,55.785397c-29.643809,0 -46.810952,-15.340984 -55.541492,-33.818333l30.137873,-18.245952z" id="svg_118" stroke="null"/>
    </g>
   </g>
  </g>
 </g>
</svg>