<svg width="520" height="280" xmlns="http://www.w3.org/2000/svg">
 <!-- Created with Method Draw - http://github.com/duopixel/Method-Draw/ -->

 <g>
  <title>background</title>
  <rect fill="none" id="canvas_background" height="282" width="522" y="-1" x="-1"/>
 </g>
 <g>
  <title>Layer 1</title>
  <metadata id="svg_35">image/svg+xml</metadata>
  <defs>
   <clipPath id="svg_33" clipPathUnits="userSpaceOnUse">
    <path id="svg_34" d="m11.52,162c0,-80.323 123.787,-145.439 276.48,-145.439l0,0c152.693,0 276.481,65.116 276.481,145.439l0,0c0,80.322 -123.788,145.439 -276.481,145.439l0,0c-152.693,0 -276.48,-65.117 -276.48,-145.439"/>
   </clipPath>
   <clipPath id="svg_26" clipPathUnits="userSpaceOnUse">
    <path id="svg_27" d="m0,136.527958l242.716369,0l0,-136.527958l-242.716369,0l0,136.527958z"/>
   </clipPath>
   <clipPath id="svg_24" clipPathUnits="userSpaceOnUse">
    <path id="svg_25" d="m0,324l576,0l0,-324l-576,0l0,324z"/>
   </clipPath>
  </defs>
  <!-- Created with Method Draw - http://github.com/duopixel/Method-Draw/ -->
  <g id="svg_75">
   <g id="svg_73">
    <title transform="translate(0,-10) translate(0,-10) translate(0,-10) translate(0,-10) translate(0,-10) translate(0,-10) translate(-12,0) translate(0,-1.7867116928100586) ">background</title>
    <rect x="-13" y="-62.786712" width="522" height="402" id="svg_71" fill="none"/>
   </g>
   <g id="svg_74">
    <title transform="translate(0,-10) translate(0,-10) translate(0,-10) translate(0,-10) translate(0,-10) translate(0,-10) translate(-12,0) translate(0,-1.7867116928100586) ">Layer 1</title>
    <metadata id="svg_70">image/svg+xml</metadata>
    <defs transform="translate(0,-10) translate(0,-10) translate(0,-10) translate(0,-10) translate(0,-10) translate(0,-10) translate(-12,0) translate(0,-1.7867116928100586) ">
     <clipPath clipPathUnits="userSpaceOnUse" id="svg_68">
      <path d="m11.52,162c0,-80.323 123.787,-145.439 276.48,-145.439l0,0c152.693,0 276.481,65.116 276.481,145.439l0,0c0,80.322 -123.788,145.439 -276.481,145.439l0,0c-152.693,0 -276.48,-65.117 -276.48,-145.439" id="svg_69"/>
     </clipPath>
     <clipPath clipPathUnits="userSpaceOnUse" id="svg_66">
      <path d="m0,136.527958l242.716369,0l0,-136.527958l-242.716369,0l0,136.527958z" id="svg_67"/>
     </clipPath>
     <clipPath clipPathUnits="userSpaceOnUse" id="svg_64">
      <path d="m0,324l576,0l0,-324l-576,0l0,324z" id="svg_65"/>
     </clipPath>
    </defs>
    <g id="svg_59" stroke="null">
     <rect y="-66.024933" x="-164.999993" height="412.049859" width="849.999994" id="svg_63" shape-rendering="auto" stroke-dashoffset="0" stroke-miterlimit="10" stroke-width="1.585" fill-rule="evenodd" fill="#6082bb" clip-rule="nonzero"/>
     <path d="m153.181317,160.69234c9.33632,0 16.306237,-1.748904 20.716313,-5.196384c4.362878,-3.412114 7.376187,-9.323782 8.955586,-17.569924c1.472607,-7.70771 0.911572,-13.0896 -1.666836,-15.993951c-2.63646,-2.966441 -8.336522,-4.470882 -16.941571,-4.470882l-14.920278,0l-8.271512,43.231141l12.128299,0l-0.000001,0zm-48.800301,53.2529c-0.692573,0 -1.350334,-0.314418 -1.790639,-0.858347c-0.441105,-0.543129 -0.619841,-1.258412 -0.487526,-1.949325l21.92117,-114.563294c0.212041,-1.107496 1.167714,-1.907673 2.27893,-1.907673l47.245672,0c14.848334,0 25.90023,4.095175 32.846943,12.173107c6.983857,8.120384 9.140526,19.471298 6.409659,33.736782c-1.111216,5.811846 -3.022586,11.20944 -5.680708,16.041902c-2.661206,4.83796 -6.178287,9.31434 -10.455271,13.307327c-5.119684,4.867039 -10.914165,8.396281 -17.206967,10.472942c-6.193003,2.049159 -14.146472,3.088278 -23.639077,3.088278l-19.130733,0l-5.463275,28.54984c-0.212041,1.108285 -1.166949,1.908462 -2.278165,1.908462l-24.570015,0l0.000002,-0.000001z" id="svg_62" fill-rule="nonzero" fill="#ffffff"/>
     <path d="m271.063649,183.486938c-0.684474,0 -1.33304,-0.314406 -1.767706,-0.858335c-0.436196,-0.543141 -0.612659,-1.257635 -0.482039,-1.949337l9.572648,-50.689679c0.910607,-4.820665 0.686016,-8.280731 -0.631755,-9.742731c-0.806699,-0.893701 -3.229835,-2.392644 -10.394617,-2.392644l-17.342449,0l-12.035517,63.724264c-0.209321,1.108285 -1.152751,1.908462 -2.249745,1.908462l-24.063406,0c-0.684462,0 -1.333017,-0.314406 -1.768459,-0.858335c-0.435419,-0.543141 -0.611894,-1.258424 -0.481274,-1.949337l21.640258,-114.563294c0.20931,-1.107496 1.152751,-1.907673 2.249745,-1.907673l24.063382,0c0.684474,0 1.333052,0.314418 1.768471,0.857558c0.435443,0.543918 0.611894,1.258412 0.481274,1.950114l-5.222143,27.650629l18.656393,0c14.212683,0 23.850258,2.578161 29.463531,7.882219c5.721724,5.410956 7.507007,14.062697 5.306931,25.717809l-10.068438,53.311847c-0.209298,1.108285 -1.151985,1.908462 -2.249733,1.908462l-24.445352,0l0,0.000001z" id="svg_61" fill-rule="nonzero" fill="#ffffff"/>
     <path d="m352.122203,160.69234c9.694532,0 16.93187,-1.748904 21.511169,-5.196384c4.530276,-3.411325 7.659206,-9.322993 9.300001,-17.569924c1.529105,-7.70771 0.946561,-13.0896 -1.731587,-15.993951c-2.737624,-2.966441 -8.656379,-4.470882 -17.591586,-4.470882l-15.49278,0l-8.588873,43.231141l12.593656,0zm-50.671937,53.2529c-0.719145,0 -1.402147,-0.314418 -1.859346,-0.858347c-0.458011,-0.543129 -0.644434,-1.258412 -0.507045,-1.949325l22.762282,-114.563294c0.220976,-1.107496 1.212521,-1.907673 2.367191,-1.907673l49.057632,0c15.418847,0 26.894,4.095175 34.108063,12.173107c7.251807,8.119596 9.490427,19.470521 6.655582,33.736782c-1.15547,5.811846 -3.139373,11.20944 -5.899471,16.041902c-2.763336,4.83796 -6.415357,9.31434 -10.856442,13.307327c-5.316126,4.867039 -11.332925,8.396281 -17.8672,10.472942c-6.430603,2.049159 -14.689236,3.088278 -24.546093,3.088278l-19.865548,0l-5.670489,28.54984c-0.220965,1.108285 -1.212521,1.908462 -2.367179,1.908462l-25.511937,0l0,-0.000001z" id="svg_60" fill-rule="nonzero" fill="#ffffff"/>
    </g>
   </g>
  </g>
 </g>
</svg>